Coordinates
version=1
nRows=9
nColumns=38
inDegrees=yes

Units are S.I. units (second, meters, Newtons, ...)
Angles are in degrees.

endheader
time	pelvis_tilt	pelvis_list	pelvis_rotation	pelvis_tx	pelvis_ty	pelvis_tz	hip_flexion_r	hip_adduction_r	hip_rotation_r	knee_angle_r	ankle_angle_r	subtalar_angle_r	mtp_angle_r	hip_flexion_l	hip_adduction_l	hip_rotation_l	knee_angle_l	ankle_angle_l	subtalar_angle_l	mtp_angle_l	lumbar_extension	lumbar_bending	lumbar_rotation	arm_flex_r	arm_add_r	arm_rot_r	elbow_flex_r	pro_sup_r	wrist_flex_r	wrist_dev_r	arm_flex_l	arm_add_l	arm_rot_l	elbow_flex_l	pro_sup_l	wrist_flex_l	wrist_dev_l
      3.05000000	     -0.16006485	      3.96269341	     -3.63278984	      0.56350567	      0.92492928	      0.30340246	     28.78108127	     -2.77486364	     -1.29243178	    -49.02998701	     -2.23928406	    -12.33038056	     14.92524722	      1.24377170	      7.95385095	      3.89404767	    -16.20591591	     10.79776925	     -1.04818869	      2.55597977	     -4.42885751	     -2.87676476	     -4.75672300	     -7.19440899	    -17.03172524	      9.81791852	     22.74658125	     86.51662706	      0.00000000	      0.00000000	     -2.97370543	    -18.47388052	      8.56908365	     31.02612265	     85.94366927	      0.00000000	      0.00000000
      3.06000000	      0.00149482	      3.89478065	     -3.48226049	      0.57571962	      0.92452833	      0.30441452	     29.05401984	     -2.97451576	     -1.67458861	    -45.67730312	     -1.99012792	    -12.53166590	     14.51136086	     -0.25225404	      7.84613370	      4.16635273	    -15.38040021	     11.20886511	     -0.98533919	      2.56218341	     -4.71730806	     -2.76145048	     -5.06297426	     -7.38123805	    -16.98260983	      9.61264737	     22.37673647	     86.51662706	      0.00000000	      0.00000000	     -2.74723992	    -18.73671153	      8.14971325	     32.14034972	     85.94366927	      0.00000000	      0.00000000
      3.07000000	      0.19603449	      3.86738508	     -3.31986225	      0.58801962	      0.92391120	      0.30547632	     29.18577376	     -3.21962437	     -2.05918130	    -42.17428003	     -1.74761588	    -12.37273749	     14.11156650	     -1.77959515	      7.76944463	      4.48075345	    -14.56138158	     11.58530914	     -0.93202381	      2.59654348	     -5.03462195	     -2.69892161	     -5.35436895	     -7.55805618	    -16.92254244	      9.44195873	     22.00896375	     86.51662706	      0.00000000	      0.00000000	     -2.52653031	    -18.99324724	      7.74306505	     33.22898107	     85.94366927	      0.00000000	      0.00000000
      3.08000000	      0.41672101	      3.87138912	     -3.14066411	      0.60040275	      0.92308747	      0.30660013	     29.18503399	     -3.50270183	     -2.46215420	    -38.56131154	     -1.49919201	    -11.78501897	     13.73003527	     -3.32370635	      7.71249336	      4.83306277	    -13.77153868	     11.92601553	     -0.88910140	      2.66359630	     -5.37142048	     -2.67899852	     -5.63651120	     -7.72607683	    -16.85349722	      9.30610103	     21.64550380	     86.51662706	      0.00000000	      0.00000000	     -2.31197943	    -19.23947583	      7.35059993	     34.27977309	     85.94366927	      0.00000000	      0.00000000
      3.09000000	      0.65487377	      3.89469124	     -2.94325774	      0.61288613	      0.92209539	      0.30778918	     29.06520161	     -3.81064923	     -2.90207698	    -34.88702295	     -1.23584350	    -10.74899846	     13.36608243	     -4.86587623	      7.65973909	      5.21047838	    -13.03679682	     12.23662547	     -0.85067180	      2.76558813	     -5.71609524	     -2.68709783	     -5.91288011	     -7.88562266	    -16.77809479	      9.20450408	     21.28710287	     86.51662706	      0.00000000	      0.00000000	     -2.10420421	    -19.47096800	      6.97368941	     35.28028012	     85.94366927	      0.00000000	      0.00000000
      3.10000000	      0.90111969	      3.92383108	     -2.72922902	      0.62549848	      0.92097279	      0.30903993	     28.84606072	     -4.12450661	     -3.39595030	    -31.21125288	     -0.95053584	     -9.29833927	     13.01539817	     -6.38408434	      7.59443096	      5.59407543	    -12.38427699	     12.52729802	     -0.80542233	      2.90232446	     -6.05659305	     -2.70613065	     -6.18475982	     -8.03558687	    -16.69906441	      9.13617837	     20.93323452	     86.51662706	      0.00000000	      0.00000000	     -1.90406688	    -19.68345674	      6.61369103	     36.21879147	     85.94366927	      0.00000000	      0.00000000
      3.11000000	      1.14647727	      3.94547126	     -2.50163877	      0.63824971	      0.91973443	      0.31035042	     28.55428638	     -4.42140729	     -3.95367599	    -27.60745731	     -0.63780741	     -7.51629547	     12.67209164	     -7.85455091	      7.50100090	      5.96219343	    -11.84014638	     12.80923906	     -0.73849440	      3.07158641	     -6.38211987	     -2.71898921	     -6.45196562	     -8.17328382	    -16.61866109	      9.09996247	     20.58260482	     86.51662706	      0.00000000	      0.00000000	     -1.71280537	    -19.87350716	      6.27195427	     37.08534855	     85.94366927	      0.00000000	      0.00000000
      3.12000000	      1.38327472	      3.94769267	     -2.26348547	      0.65111901	      0.91837697	      0.31172609	     28.22172756	     -4.67841971	     -4.57273955	    -24.16312154	     -0.29454348	     -5.52538702	     12.33101496	     -9.25388973	      7.36620887	      6.29410143	    -11.42759143	     13.09100895	     -0.63351634	      3.27025177	     -6.68423637	     -2.71103632	     -6.71393709	     -8.29486203	    -16.53823268	      9.09464218	     20.23378858	     86.51662706	      0.00000000	      0.00000000	     -1.53233384	    -20.03899544	      5.94975866	     37.87258039	     85.94366927	      0.00000000	      0.00000000
      3.13000000	      1.60566463	      3.92090155	     -2.01656190	      0.66407922	      0.91690423	      0.31319017	     27.88176672	     -4.87700606	     -5.23521687	    -20.97664461	      0.07868927	     -3.47246830	     11.98981070	    -10.56188132	      7.17993826	      6.57310273	    -11.16510715	     13.37556938	     -0.47450137	      3.49612868	     -6.95708018	     -2.67191481	     -6.97071174	     -8.39626045	    -16.45809872	      9.11897621	     19.88583923	     86.51662706	      0.00000000	      0.00000000	     -1.36570028	    -20.17919958	      5.64822256	     38.57610707	     85.94366927	      0.00000000	      0.00000000
